<?xml version="1.0" encoding="UTF-8"?>
<svg id="Capa_1" data-name="Capa 1" xmlns="http://www.w3.org/2000/svg" xmlns:xlink="http://www.w3.org/1999/xlink" viewBox="0 0 596.85 538.58">
  <defs>
    <style>
      .cls-1 {
        fill: #572c4c;
      }

      .cls-1, .cls-2, .cls-3, .cls-4, .cls-5, .cls-6, .cls-7, .cls-8, .cls-9, .cls-10, .cls-11, .cls-12, .cls-13, .cls-14, .cls-15, .cls-16, .cls-17, .cls-18, .cls-19, .cls-20, .cls-21, .cls-22, .cls-23, .cls-24, .cls-25, .cls-26, .cls-27, .cls-28, .cls-29, .cls-30, .cls-31, .cls-32, .cls-33, .cls-34, .cls-35, .cls-36, .cls-37, .cls-38, .cls-39, .cls-40, .cls-41, .cls-42, .cls-43, .cls-44, .cls-45, .cls-46, .cls-47, .cls-48, .cls-49, .cls-50, .cls-51, .cls-52, .cls-53, .cls-54, .cls-55, .cls-56, .cls-57, .cls-58, .cls-59, .cls-60, .cls-61, .cls-62, .cls-63, .cls-64, .cls-65, .cls-66, .cls-67, .cls-68, .cls-69, .cls-70, .cls-71, .cls-72, .cls-73, .cls-74, .cls-75, .cls-76, .cls-77, .cls-78, .cls-79, .cls-80, .cls-81, .cls-82, .cls-83, .cls-84, .cls-85, .cls-86, .cls-87, .cls-88, .cls-89, .cls-90, .cls-91, .cls-92, .cls-93, .cls-94, .cls-95, .cls-96, .cls-97, .cls-98, .cls-99, .cls-100, .cls-101, .cls-102, .cls-103, .cls-104, .cls-105, .cls-106, .cls-107, .cls-108, .cls-109, .cls-110, .cls-111, .cls-112, .cls-113, .cls-114, .cls-115, .cls-116, .cls-117, .cls-118, .cls-119, .cls-120, .cls-121, .cls-122, .cls-123, .cls-124, .cls-125, .cls-126, .cls-127, .cls-128, .cls-129, .cls-130, .cls-131, .cls-132, .cls-133, .cls-134, .cls-135, .cls-136, .cls-137, .cls-138, .cls-139, .cls-140, .cls-141, .cls-142, .cls-143, .cls-144, .cls-145, .cls-146, .cls-147, .cls-148, .cls-149, .cls-150, .cls-151, .cls-152, .cls-153, .cls-154, .cls-155, .cls-156, .cls-157, .cls-158, .cls-159, .cls-160, .cls-161, .cls-162, .cls-163, .cls-164, .cls-165, .cls-166, .cls-167, .cls-168, .cls-169, .cls-170, .cls-171, .cls-172, .cls-173, .cls-174, .cls-175, .cls-176, .cls-177, .cls-178, .cls-179, .cls-180, .cls-181, .cls-182, .cls-183, .cls-184, .cls-185, .cls-186, .cls-187, .cls-188, .cls-189, .cls-190, .cls-191, .cls-192, .cls-193, .cls-194, .cls-195, .cls-196, .cls-197, .cls-198, .cls-199, .cls-200, .cls-201, .cls-202, .cls-203, .cls-204, .cls-205, .cls-206, .cls-207, .cls-208, .cls-209, .cls-210, .cls-211, .cls-212, .cls-213 {
        stroke-width: 0px;
      }

      .cls-2 {
        fill: #8f8989;
      }

      .cls-3 {
        fill: #7f6f78;
      }

      .cls-4 {
        fill: #8a8184;
      }

      .cls-5 {
        fill: #a9b4a5;
      }

      .cls-6 {
        fill: #c0dbbe;
      }

      .cls-7 {
        fill: #85797e;
      }

      .cls-8 {
        fill: #bcd4ba;
      }

      .cls-9 {
        fill: #b4c6b0;
      }

      .cls-10 {
        fill: #9da098;
      }

      .cls-11 {
        fill: #6c4e62;
      }

      .cls-12 {
        fill: #735b6b;
      }

      .cls-13 {
        fill: url(#Degradado_sin_nombre_10);
      }

      .cls-14 {
        fill: url(#Degradado_sin_nombre_37);
      }

      .cls-15 {
        fill: url(#Degradado_sin_nombre_49);
      }

      .cls-16 {
        fill: url(#Degradado_sin_nombre_86);
      }

      .cls-17 {
        fill: #999993;
      }

      .cls-18 {
        fill: #81727a;
      }

      .cls-19 {
        fill: #9a9b94;
      }

      .cls-20 {
        fill: #4f1e43;
      }

      .cls-21 {
        fill: #a0a59b;
      }

      .cls-22 {
        fill: #a1a79c;
      }

      .cls-23 {
        fill: #989893;
      }

      .cls-24 {
        fill: #4a163e;
      }

      .cls-25 {
        fill: #634059;
      }

      .cls-214 {
        clip-path: url(#clippath);
      }

      .cls-26 {
        fill: #4b183f;
      }

      .cls-27 {
        fill: none;
      }

      .cls-28 {
        fill: #7a6672;
      }

      .cls-29 {
        fill: #93908d;
      }

      .cls-30 {
        fill: #82737a;
      }

      .cls-31 {
        fill: #7f6e77;
      }

      .cls-32 {
        fill: #4e1d43;
      }

      .cls-33 {
        fill: #65435b;
      }

      .cls-34 {
        fill: #715768;
      }

      .cls-35 {
        fill: #5e3753;
      }

      .cls-36 {
        fill: #bdd5ba;
      }

      .cls-37 {
        fill: #a6b0a2;
      }

      .cls-38 {
        fill: #603b56;
      }

      .cls-39 {
        fill: #5d3653;
      }

      .cls-40 {
        fill: #979691;
      }

      .cls-41 {
        fill: #5b3351;
      }

      .cls-42 {
        fill: #b5c9b2;
      }

      .cls-43 {
        fill: #522447;
      }

      .cls-44 {
        fill: #a2a99e;
      }

      .cls-45 {
        fill: #afbeab;
      }

      .cls-46 {
        fill: #613d57;
      }

      .cls-47 {
        fill: #69495f;
      }

      .cls-48 {
        fill: #abb7a7;
      }

      .cls-49 {
        fill: #b5c8b2;
      }

      .cls-50 {
        fill: #9c9e96;
      }

      .cls-51 {
        fill: #735a6a;
      }

      .cls-52 {
        fill: #918d8b;
      }

      .cls-53 {
        fill: #542749;
      }

      .cls-54 {
        fill: #94928f;
      }

      .cls-55 {
        fill: #7b6873;
      }

      .cls-56 {
        fill: #78626f;
      }

      .cls-57 {
        fill: #b7ccb4;
      }

      .cls-58 {
        fill: #592f4e;
      }

      .cls-59 {
        fill: #a8b3a4;
      }

      .cls-60 {
        fill: #8a8083;
      }

      .cls-61 {
        fill: #5f3955;
      }

      .cls-62 {
        fill: #95938f;
      }

      .cls-63 {
        fill: #a2a89d;
      }

      .cls-64 {
        fill: #8d8586;
      }

      .cls-65 {
        fill: #a4aca0;
      }

      .cls-66 {
        fill: #b4c7b1;
      }

      .cls-67 {
        fill: #77616f;
      }

      .cls-68 {
        fill: #877c80;
      }

      .cls-69 {
        fill: #b1c1ad;
      }

      .cls-70 {
        fill: #938f8d;
      }

      .cls-71 {
        fill: #796471;
      }

      .cls-72 {
        fill: #8b8385;
      }

      .cls-73 {
        fill: #aebdab;
      }

      .cls-74 {
        fill: #4d1b41;
      }

      .cls-75 {
        fill: #84777d;
      }

      .cls-76 {
        fill: #acbaa9;
      }

      .cls-77 {
        fill: #725869;
      }

      .cls-78 {
        fill: #b0c0ad;
      }

      .cls-79 {
        fill: #acb9a8;
      }

      .cls-80 {
        fill: #85787e;
      }

      .cls-81 {
        fill: #67465d;
      }

      .cls-82 {
        fill: #6f5366;
      }

      .cls-83 {
        fill: #a9b5a5;
      }

      .cls-84 {
        fill: #bdd6bb;
      }

      .cls-85 {
        fill: #969591;
      }

      .cls-86 {
        fill: #765f6d;
      }

      .cls-87 {
        fill: #542648;
      }

      .cls-88 {
        fill: #a7b1a3;
      }

      .cls-89 {
        fill: #67475e;
      }

      .cls-90 {
        fill: #6d5164;
      }

      .cls-91 {
        fill: #887d81;
      }

      .cls-92 {
        fill: #7d6b75;
      }

      .cls-93 {
        fill: #969490;
      }

      .cls-94 {
        fill: #5c3451;
      }

      .cls-95 {
        fill: #6a4b60;
      }

      .cls-96 {
        fill: #562a4b;
      }

      .cls-97 {
        fill: #9fa49a;
      }

      .cls-98 {
        fill: #64425b;
      }

      .cls-99 {
        fill: #82747b;
      }

      .cls-100 {
        fill: #502044;
      }

      .cls-101 {
        fill: #bbd3b9;
      }

      .cls-102 {
        fill: #705668;
      }

      .cls-103 {
        fill: #694a60;
      }

      .cls-104 {
        fill: #897f82;
      }

      .cls-105 {
        fill: #76606e;
      }

      .cls-106 {
        fill: #745c6b;
      }

      .cls-107 {
        fill: #c3dfc0;
      }

      .cls-108 {
        fill: #b8cdb5;
      }

      .cls-109 {
        fill: #66445c;
      }

      .cls-110 {
        fill: #64415a;
      }

      .cls-111 {
        fill: #928e8c;
      }

      .cls-112 {
        fill: #a0a69c;
      }

      .cls-113 {
        fill: #bbd2b8;
      }

      .cls-114 {
        fill: #a5ada0;
      }

      .cls-115 {
        fill: url(#Degradado_sin_nombre_37-2);
      }

      .cls-116 {
        fill: url(#Degradado_sin_nombre_37-3);
      }

      .cls-117 {
        fill: #8e8888;
      }

      .cls-118 {
        fill: #c2dec0;
      }

      .cls-119 {
        fill: #b2c4af;
      }

      .cls-120 {
        fill: #7b6773;
      }

      .cls-121 {
        fill: #afbfac;
      }

      .cls-122 {
        fill: #55284a;
      }

      .cls-123 {
        fill: #817179;
      }

      .cls-124 {
        fill: #0c7994;
      }

      .cls-125 {
        fill: #55294a;
      }

      .cls-126 {
        fill: #7e6c76;
      }

      .cls-127 {
        fill: #aab6a6;
      }

      .cls-128 {
        fill: #adbba9;
      }

      .cls-129 {
        fill: #807078;
      }

      .cls-130 {
        fill: #8b8284;
      }

      .cls-131 {
        fill: #7e6d77;
      }

      .cls-132 {
        fill: #603a55;
      }

      .cls-133 {
        fill: #b1c2ae;
      }

      .cls-134 {
        fill: #a6afa1;
      }

      .cls-135 {
        fill: #979792;
      }

      .cls-136 {
        fill: #5a3150;
      }

      .cls-137 {
        fill: #6d5064;
      }

      .cls-138 {
        fill: #5a304f;
      }

      .cls-139 {
        fill: #84767c;
      }

      .cls-140 {
        fill: #9a9c95;
      }

      .cls-141 {
        fill: #887e82;
      }

      .cls-142 {
        fill: #c0dabd;
      }

      .cls-143 {
        fill: #bfd9bd;
      }

      .cls-144 {
        fill: #908a89;
      }

      .cls-145 {
        fill: #4c1940;
      }

      .cls-146 {
        fill: #999a94;
      }

      .cls-147 {
        fill: #7c6a75;
      }

      .cls-148 {
        fill: #755e6d;
      }

      .cls-149 {
        fill: #bad0b7;
      }

      .cls-150 {
        fill: #5e3854;
      }

      .cls-151 {
        fill: #8c8486;
      }

      .cls-152 {
        fill: #c1dcbf;
      }

      .cls-153 {
        fill: #6e5265;
      }

      .cls-154 {
        fill: #83757c;
      }

      .cls-155 {
        fill: #4f1f44;
      }

      .cls-156 {
        fill: #877b80;
      }

      .cls-157 {
        fill: #532548;
      }

      .cls-158 {
        fill: #9da198;
      }

      .cls-159 {
        fill: #4c1a41;
      }

      .cls-160 {
        fill: #613c57;
      }

      .cls-161 {
        fill: #5d3552;
      }

      .cls-162 {
        fill: #512246;
      }

      .cls-163 {
        fill: #9fa39a;
      }

      .cls-164 {
        fill: #6f5466;
      }

      .cls-165 {
        fill: #bed8bc;
      }

      .cls-166 {
        fill: #786370;
      }

      .cls-167 {
        fill: #908b8a;
      }

      .cls-168 {
        fill: #867a7f;
      }

      .cls-169 {
        fill: #a3ab9f;
      }

      .cls-170 {
        fill: #6a4c61;
      }

      .cls-171 {
        fill: #b6cab3;
      }

      .cls-172 {
        fill: #a8b2a3;
      }

      .cls-173 {
        fill: #8d8687;
      }

      .cls-174 {
        fill: #918c8b;
      }

      .cls-175 {
        fill: #9ea299;
      }

      .cls-176 {
        fill: #582e4e;
      }

      .cls-177 {
        fill: url(#Degradado_sin_nombre_686);
      }

      .cls-178 {
        fill: url(#Degradado_sin_nombre_126);
      }

      .cls-179 {
        fill: #572b4c;
      }

      .cls-180 {
        fill: #68485e;
      }

      .cls-181 {
        fill: #4e1c42;
      }

      .cls-182 {
        fill: #4b173f;
      }

      .cls-183 {
        fill: #755d6c;
      }

      .cls-184 {
        fill: #623e58;
      }

      .cls-185 {
        fill: #bad1b8;
      }

      .cls-186 {
        fill: #aebcaa;
      }

      .cls-187 {
        fill: #b3c5b0;
      }

      .cls-188 {
        fill: #6c4f63;
      }

      .cls-189 {
        fill: #abb8a7;
      }

      .cls-190 {
        fill: #a5aea1;
      }

      .cls-191 {
        fill: #9c9f97;
      }

      .cls-192 {
        fill: #b9cfb6;
      }

      .cls-193 {
        fill: #512145;
      }

      .cls-194 {
        fill: #b2c3ae;
      }

      .cls-195 {
        fill: #66455d;
      }

      .cls-196 {
        fill: #6b4d62;
      }

      .cls-197 {
        fill: #72596a;
      }

      .cls-198 {
        fill: #b7cbb4;
      }

      .cls-199 {
        fill: #5b3250;
      }

      .cls-200 {
        fill: #7c6974;
      }

      .cls-201 {
        fill: #bed7bb;
      }

      .cls-202 {
        fill: #b8ceb6;
      }

      .cls-203 {
        fill: #9b9d96;
      }

      .cls-204 {
        fill: #a3aa9e;
      }

      .cls-205 {
        fill: #633f59;
      }

      .cls-206 {
        fill: #c1ddbf;
      }

      .cls-207 {
        fill: #94918e;
      }

      .cls-208 {
        fill: #522346;
      }

      .cls-209 {
        fill: #796571;
      }

      .cls-210 {
        fill: #8e8787;
      }

      .cls-211 {
        fill: #705567;
      }

      .cls-212 {
        fill: #bbcfbb;
      }

      .cls-213 {
        fill: #582d4d;
      }
    </style>
    <clipPath id="clippath">
      <rect class="cls-27" x="0" y="0" width="596.85" height="538.58"/>
    </clipPath>
    <linearGradient id="Degradado_sin_nombre_10" data-name="Degradado sin nombre 10" x1="1848.67" y1="1388.3" x2="1848.67" y2="1947.62" gradientTransform="translate(2147.1 1926.88) rotate(-180)" gradientUnits="userSpaceOnUse">
      <stop offset="0" stop-color="#0c7994"/>
      <stop offset=".07" stop-color="#2d8b9c"/>
      <stop offset=".22" stop-color="#6caeab"/>
      <stop offset=".34" stop-color="#99c7b6"/>
      <stop offset=".43" stop-color="#b5d7bd"/>
      <stop offset=".48" stop-color="#c0ddc0"/>
      <stop offset=".55" stop-color="#c5dda9"/>
      <stop offset=".69" stop-color="#d0dd7b"/>
      <stop offset=".82" stop-color="#d8dd5a"/>
      <stop offset=".93" stop-color="#dddd46"/>
      <stop offset="1" stop-color="#dfde3f"/>
    </linearGradient>
    <radialGradient id="Degradado_sin_nombre_86" data-name="Degradado sin nombre 86" cx="294.93" cy="163.34" fx="294.93" fy="163.34" r="145.1" gradientUnits="userSpaceOnUse">
      <stop offset="0" stop-color="#dfde3f"/>
      <stop offset=".03" stop-color="#dfd83d"/>
      <stop offset=".5" stop-color="#e3902c"/>
      <stop offset=".83" stop-color="#e66422"/>
      <stop offset="1" stop-color="#e7531e"/>
    </radialGradient>
    <linearGradient id="Degradado_sin_nombre_37" data-name="Degradado sin nombre 37" x1="252.18" y1="107.88" x2="356.65" y2="-161.06" gradientUnits="userSpaceOnUse">
      <stop offset="0" stop-color="#c2dec0"/>
      <stop offset="1" stop-color="#0c7994"/>
    </linearGradient>
    <linearGradient id="Degradado_sin_nombre_37-2" data-name="Degradado sin nombre 37" x1="227.81" y1="115.11" x2="337.54" y2="-167.37" xlink:href="#Degradado_sin_nombre_37"/>
    <linearGradient id="Degradado_sin_nombre_37-3" data-name="Degradado sin nombre 37" x1="293.03" y1="145.67" x2="302.27" y2="121.13" xlink:href="#Degradado_sin_nombre_37"/>
    <linearGradient id="Degradado_sin_nombre_686" data-name="Degradado sin nombre 686" x1="1016.21" y1="5980.13" x2="1092.76" y2="6032.23" gradientTransform="translate(5139.23 4456.26) rotate(-52.47) scale(1.05 -1.07) skewX(-6.47)" gradientUnits="userSpaceOnUse">
      <stop offset="0" stop-color="#c2dec0"/>
      <stop offset=".02" stop-color="#b1d5bc"/>
      <stop offset=".08" stop-color="#8bbfb2"/>
      <stop offset=".15" stop-color="#68acaa"/>
      <stop offset=".23" stop-color="#4b9ca3"/>
      <stop offset=".31" stop-color="#348f9d"/>
      <stop offset=".41" stop-color="#228599"/>
      <stop offset=".52" stop-color="#157e96"/>
      <stop offset=".67" stop-color="#0e7a94"/>
      <stop offset="1" stop-color="#0c7994"/>
    </linearGradient>
    <radialGradient id="Degradado_sin_nombre_49" data-name="Degradado sin nombre 49" cx="288.03" cy="199.38" fx="288.03" fy="199.38" r="115.36" gradientTransform="translate(9.13 119.63) scale(.99 .4)" gradientUnits="userSpaceOnUse">
      <stop offset="0" stop-color="#c2dec0"/>
      <stop offset="1" stop-color="#0c7994"/>
    </radialGradient>
    <linearGradient id="Degradado_sin_nombre_126" data-name="Degradado sin nombre 126" x1="-2426.52" y1="640.65" x2="-2240.39" y2="640.65" gradientTransform="translate(2729.52 598.85) rotate(18.02)" gradientUnits="userSpaceOnUse">
      <stop offset="0" stop-color="#0c7994"/>
      <stop offset=".28" stop-color="#235373"/>
      <stop offset=".58" stop-color="#383256"/>
      <stop offset=".83" stop-color="#451d44"/>
      <stop offset="1" stop-color="#4a163e"/>
    </linearGradient>
  </defs>
  <g class="cls-214">
    <rect class="cls-13" x="0" y="0" width="596.85" height="538.58"/>
    <polygon class="cls-107" points="332.92 432.63 269.42 432.63 136.31 199.38 453.27 199.38 332.92 432.63"/>
    <path class="cls-16" d="M461.91,163.34c0,65.88-73.17,119.28-167.12,119.28s-166.84-53.4-166.84-119.28,72.89-119.28,166.84-119.28,167.12,53.4,167.12,119.28Z"/>
    <g>
      <polygon class="cls-14" points="292.43 -184.89 317.46 -176.28 316.03 132.69 295.92 118.74 292.43 -184.89"/>
      <polygon class="cls-115" points="292.43 -184.89 295.92 118.74 278.95 134.97 269.4 -170.92 292.43 -184.89"/>
      <polygon class="cls-116" points="295.92 118.74 316.03 132.69 300.57 148.51 278.95 134.97 295.92 118.74"/>
    </g>
    <path class="cls-177" d="M453.27,199.38c2.45,10.79-50.32,86.83-158.48,86.83-124.53,0-156.04-76.05-158.48-86.83-2.45-10.79,71.53.27,153.9-.32,82.37-.59,160.62-10.46,163.06.32Z"/>
    <ellipse class="cls-15" cx="294.79" cy="199.38" rx="158.48" ry="32.86"/>
    <rect class="cls-27" x="105.42" y="-105.95" width="396.85" height="538.58"/>
    <circle class="cls-24" cx="299.64" cy="440.91" r="52.93"/>
    <path class="cls-124" d="M475.38,644.8c48.81-47.99,45.3-127.93-8.15-170.69-1.71-1.37-3.47-2.73-5.28-4.08-43.56-32.51-84.42-40.78-122.99-40.84-3.69-11.85-11.97-15.03-22.09-23.7-28.66-24.59-28.25-12.34-52.85,16.32-16.75,19.51-62.7,28.95-54.39,51.48-21.41,15.03-36.4,31.54-35.32,45.34,2.68,34.25,113.02,54.34,113.02,54.34,0,0,133.58,19.1,108.25,52-25.33,32.9-66.87,71.22-66.87,71.22.98,2.51,87.18,6.17,145.05-49.8.54-.52,1.08-1.05,1.61-1.57Z"/>
    <g>
      <path class="cls-178" d="M225.03,453.82c-4.8,14.76,23.74,45.36,72.61,61.26,48.88,15.9,99.59,11.07,104.39-3.68,4.8-14.76-30.93-39.61-79.81-55.51-48.88-15.9-92.39-16.82-97.19-2.06Z"/>
      <circle class="cls-24" cx="299.41" cy="440.95" r="52.93"/>
      <circle class="cls-124" cx="353.57" cy="471.62" r="35.6"/>
    </g>
    <path class="cls-212" d="M118.42,495.1c-46.2,44.42-42.47,119.43,6.82,160.39,5.36,4.45,11.27,8.86,17.78,13.12,45.49,29.75,88,33.93,126.5,31.6,4.41,11.6,45.54-33.78,56.17-25.74,30.13,22.77-2.18,43,20.59,12.87,15.5-20.51,61.24-3.51,51.54-25.47,28.29-15.87,39.09-42.77,37.12-58.8-5.07-41.31-124.03-48-124.03-48,0,0-101.11-4.93-111.27-45.19-10.89-43.18,62.32-75.23,62.32-75.23-1.13-2.45-82.43,4.19-141.68,58.7-.63.58-1.26,1.17-1.87,1.76Z"/>
    <circle class="cls-24" cx="299.77" cy="441.59" r="52.93"/>
    <path class="cls-124" d="M414.31,556.42c4.55,5.49-13.29,31.18-18.2,38.11-28.26,39.88-110.91,62.73-110.91,62.73,1.06,2.73,88.24,3.58,156.85-50.8,31.07-24.63,32.82-55.63,38.73-73.45l-66.46,23.41Z"/>
    <circle class="cls-124" cx="353.4" cy="468.92" r="38.31"/>
    <g>
      <g>
        <circle class="cls-24" cx="298.43" cy="313.65" r="42.98"/>
        <path class="cls-182" d="M341.2,313.79c0,23.62-19.16,43.11-42.77,43.1-23.62,0-42.75-19.49-42.75-43.1,0-23.62,19.14-42.76,42.76-42.76,23.62,0,42.76,19.14,42.76,42.76Z"/>
        <path class="cls-26" d="M341,313.94c.01,23.5-19.07,43.24-42.57,43.23-23.5,0-42.53-19.73-42.53-43.23,0-23.5,19.05-42.55,42.55-42.55,23.5,0,42.55,19.05,42.55,42.55Z"/>
        <path class="cls-145" d="M340.8,314.08c.02,23.38-18.98,43.37-42.36,43.36-23.38-.01-42.3-19.98-42.3-43.36,0-23.38,18.95-42.33,42.33-42.33,23.38,0,42.33,18.95,42.33,42.33Z"/>
        <path class="cls-159" d="M340.59,314.23c.02,23.26-18.9,43.5-42.16,43.48-23.26-.02-42.07-20.22-42.07-43.48,0-23.26,18.86-42.12,42.12-42.12,23.26,0,42.12,18.86,42.12,42.12Z"/>
        <path class="cls-74" d="M340.39,314.37c.03,23.14-18.81,43.63-41.95,43.61-23.14-.02-41.85-20.47-41.85-43.61,0-23.14,18.76-41.9,41.9-41.9,23.14,0,41.9,18.76,41.9,41.9Z"/>
        <path class="cls-181" d="M340.18,314.52c.04,23.02-18.73,43.76-41.75,43.74-23.02-.02-41.62-20.71-41.62-43.74,0-23.02,18.66-41.69,41.69-41.69,23.02,0,41.69,18.66,41.69,41.69Z"/>
        <path class="cls-32" d="M339.98,314.66c.04,22.9-18.64,43.89-41.55,43.86-22.9-.03-41.4-20.96-41.4-43.86,0-22.9,18.57-41.47,41.47-41.47,22.9,0,41.47,18.57,41.47,41.47Z"/>
        <path class="cls-20" d="M339.78,314.8c.05,22.79-18.56,44.02-41.34,43.99-22.79-.03-41.17-21.2-41.17-43.99,0-22.79,18.47-41.26,41.26-41.26,22.79,0,41.26,18.47,41.26,41.26Z"/>
        <path class="cls-155" d="M339.57,314.95c.06,22.67-18.47,44.15-41.14,44.12-22.67-.03-40.95-21.45-40.95-44.12,0-22.67,18.38-41.04,41.04-41.04,22.67,0,41.04,18.38,41.04,41.04Z"/>
        <path class="cls-100" d="M339.37,315.09c.06,22.55-18.38,44.28-40.93,44.24-22.55-.04-40.72-21.7-40.72-44.24,0-22.55,18.28-40.83,40.83-40.83,22.55,0,40.83,18.28,40.83,40.83Z"/>
        <path class="cls-193" d="M339.17,315.24c.07,22.43-18.3,44.41-40.73,44.37-22.43-.04-40.5-21.94-40.5-44.37,0-22.43,18.18-40.61,40.61-40.61,22.43,0,40.61,18.18,40.61,40.61Z"/>
        <path class="cls-162" d="M338.96,315.38c.07,22.31-18.21,44.54-40.52,44.5-22.31-.05-40.27-22.19-40.27-44.5,0-22.31,18.09-40.4,40.4-40.4,22.31,0,40.4,18.09,40.4,40.4Z"/>
        <path class="cls-208" d="M338.76,315.53c.08,22.19-18.13,44.67-40.32,44.62-22.19-.05-40.05-22.43-40.05-44.62,0-22.19,17.99-40.18,40.18-40.18,22.19,0,40.18,17.99,40.18,40.18Z"/>
        <path class="cls-43" d="M338.56,315.67c.09,22.07-18.04,44.8-40.11,44.75-22.07-.05-39.82-22.68-39.82-44.75,0-22.07,17.89-39.97,39.97-39.97,22.07,0,39.97,17.89,39.97,39.97Z"/>
        <path class="cls-157" d="M338.35,315.81c.05,21.96-17.95,44.93-39.91,44.88-21.95-.06-39.6-22.92-39.6-44.88,0-21.95,17.8-39.75,39.75-39.75,21.95,0,39.71,17.8,39.75,39.75Z"/>
        <path class="cls-87" d="M338.15,315.96c.05,21.84-17.87,45.07-39.71,45.01-21.84-.06-39.37-23.17-39.37-45.01,0-21.84,17.7-39.54,39.54-39.54,21.84,0,39.49,17.7,39.54,39.54Z"/>
        <path class="cls-53" d="M337.94,316.1c.05,21.72-17.78,45.2-39.5,45.13-21.72-.06-39.15-23.41-39.15-45.13,0-21.72,17.61-39.32,39.32-39.32,21.72,0,39.27,17.61,39.32,39.32Z"/>
        <path class="cls-122" d="M337.74,316.25c.06,21.6-17.7,45.33-39.3,45.26-21.6-.07-38.92-23.66-38.92-45.26,0-21.6,17.51-39.11,39.11-39.11,21.6,0,39.05,17.51,39.11,39.11Z"/>
        <path class="cls-125" d="M337.54,316.39c.06,21.48-17.61,45.46-39.09,45.39-21.48-.07-38.69-23.91-38.69-45.39,0-21.48,17.41-38.89,38.89-38.89,21.48,0,38.83,17.41,38.89,38.89Z"/>
        <path class="cls-96" d="M337.33,316.54c.06,21.36-17.53,45.59-38.89,45.51-21.36-.08-38.47-24.15-38.47-45.51,0-21.36,17.32-38.68,38.68-38.68,21.36,0,38.62,17.32,38.68,38.68Z"/>
        <path class="cls-179" d="M337.13,316.68c.06,21.24-17.44,45.72-38.68,45.64-21.24-.08-38.24-24.4-38.24-45.64,0-21.24,17.22-38.46,38.46-38.46,21.24,0,38.4,17.22,38.46,38.46Z"/>
        <path class="cls-1" d="M336.93,316.82c.07,21.12-17.35,45.85-38.48,45.77-21.12-.08-38.02-24.64-38.02-45.77,0-21.12,17.12-38.25,38.25-38.25,21.12,0,38.18,17.12,38.25,38.25Z"/>
        <path class="cls-213" d="M336.72,316.97c.07,21.01-17.27,45.98-38.27,45.89-21.01-.09-37.79-24.89-37.79-45.89,0-21.01,17.03-38.03,38.03-38.03,21.01,0,37.96,17.03,38.03,38.03Z"/>
        <path class="cls-176" d="M336.52,317.11c.07,20.89-17.18,46.11-38.07,46.02-20.89-.09-37.57-25.13-37.57-46.02,0-20.89,16.93-37.82,37.82-37.82,20.89,0,37.74,16.93,37.82,37.82Z"/>
        <path class="cls-58" d="M336.31,317.26c.08,20.77-17.1,46.24-37.87,46.15-20.77-.09-37.34-25.38-37.34-46.15,0-20.77,16.84-37.6,37.6-37.6,20.77,0,37.53,16.84,37.6,37.6Z"/>
        <path class="cls-138" d="M336.11,317.4c.08,20.65-17.01,46.37-37.66,46.27-20.65-.1-37.12-25.62-37.12-46.27,0-20.65,16.74-37.39,37.39-37.39s37.31,16.74,37.39,37.39Z"/>
        <path class="cls-136" d="M335.91,317.55c.08,20.53-16.93,46.5-37.46,46.4-20.53-.1-36.89-25.87-36.89-46.4,0-20.53,16.64-37.17,37.17-37.17,20.53,0,37.09,16.64,37.17,37.17Z"/>
        <path class="cls-199" d="M335.7,317.69c.09,20.41-16.84,46.63-37.25,46.53-20.41-.11-36.67-26.11-36.67-46.53,0-20.41,16.55-36.96,36.96-36.96,20.41,0,36.87,16.55,36.96,36.96Z"/>
        <path class="cls-41" d="M335.5,317.83c.09,20.29-16.75,46.76-37.05,46.65-20.29-.11-36.44-26.36-36.44-46.65,0-20.29,16.45-36.74,36.74-36.74,20.29,0,36.66,16.45,36.74,36.74Z"/>
        <path class="cls-94" d="M335.3,317.98c.09,20.18-16.67,46.89-36.84,46.78-20.17-.11-36.22-26.61-36.22-46.78,0-20.17,16.35-36.53,36.53-36.53,20.17,0,36.44,16.36,36.53,36.53Z"/>
        <path class="cls-161" d="M335.09,318.12c.1,20.06-16.58,47.02-36.64,46.91-20.06-.12-35.99-26.85-35.99-46.91,0-20.06,16.26-36.31,36.31-36.31,20.06,0,36.22,16.26,36.31,36.31Z"/>
        <path class="cls-39" d="M334.89,318.27c.1,19.94-16.5,47.15-36.43,47.03-19.94-.12-35.77-27.1-35.77-47.03,0-19.94,16.16-36.1,36.1-36.1,19.94,0,36,16.16,36.1,36.1Z"/>
        <path class="cls-35" d="M334.69,318.41c.1,19.82-16.41,47.29-36.23,47.16-19.82-.12-35.54-27.34-35.54-47.16,0-19.82,16.07-35.89,35.89-35.89,19.82,0,35.78,16.07,35.89,35.89Z"/>
        <path class="cls-150" d="M334.48,318.56c.11,19.7-16.33,47.42-36.03,47.29-19.7-.13-35.31-27.59-35.31-47.29,0-19.7,15.97-35.67,35.67-35.67,19.7,0,35.57,15.97,35.67,35.67Z"/>
        <path class="cls-61" d="M334.28,318.7c.11,19.58-16.24,47.55-35.82,47.41s-35.09-27.83-35.09-47.41c0-19.58,15.87-35.46,35.46-35.46,19.58,0,35.35,15.87,35.46,35.46Z"/>
        <path class="cls-132" d="M334.07,318.84c.11,19.46-16.15,47.68-35.62,47.54-19.46-.14-34.86-28.08-34.86-47.54,0-19.46,15.78-35.24,35.24-35.24,19.46,0,35.13,15.78,35.24,35.24Z"/>
        <path class="cls-38" d="M333.87,318.99c.11,19.35-16.07,47.81-35.41,47.67s-34.64-28.32-34.64-47.67c0-19.34,15.68-35.03,35.03-35.03,19.34,0,34.91,15.68,35.03,35.03Z"/>
        <path class="cls-160" d="M333.67,319.13c.12,19.23-15.98,47.94-35.21,47.79-19.23-.14-34.41-28.57-34.41-47.79,0-19.23,15.59-34.81,34.81-34.81,19.23,0,34.69,15.59,34.81,34.81Z"/>
        <path class="cls-46" d="M333.46,319.28c.12,19.11-15.9,48.07-35,47.92-19.11-.15-34.19-28.82-34.19-47.92,0-19.11,15.49-34.6,34.6-34.6,19.11,0,34.48,15.49,34.6,34.6Z"/>
        <path class="cls-184" d="M333.26,319.42c.12,18.99-15.81,48.2-34.8,48.05-18.99-.15-33.96-29.06-33.96-48.05,0-18.99,15.39-34.38,34.38-34.38,18.99,0,34.26,15.39,34.38,34.38Z"/>
        <path class="cls-205" d="M333.06,319.57c.13,18.87-15.73,48.33-34.59,48.18-18.87-.15-33.74-29.31-33.74-48.18,0-18.87,15.3-34.17,34.17-34.17,18.87,0,34.04,15.3,34.17,34.17Z"/>
        <path class="cls-25" d="M332.85,319.71c.13,18.75-15.64,48.46-34.39,48.3s-33.51-29.55-33.51-48.3c0-18.75,15.2-33.95,33.95-33.95,18.75,0,33.82,15.2,33.95,33.95Z"/>
        <path class="cls-110" d="M332.65,319.85c.13,18.63-15.55,48.59-34.19,48.43-18.63-.16-33.29-29.8-33.29-48.43,0-18.63,15.1-33.74,33.74-33.74,18.63,0,33.6,15.1,33.74,33.74Z"/>
        <path class="cls-98" d="M332.44,320c.14,18.51-15.47,48.72-33.98,48.56-18.51-.17-33.06-30.04-33.06-48.56,0-18.51,15.01-33.52,33.52-33.52,18.51,0,33.39,15.01,33.52,33.52Z"/>
        <path class="cls-33" d="M332.24,320.14c.14,18.4-15.38,48.85-33.78,48.68s-32.84-30.29-32.84-48.68c0-18.39,14.91-33.31,33.31-33.31,18.39,0,33.17,14.91,33.31,33.31Z"/>
        <path class="cls-109" d="M332.04,320.29c.14,18.28-15.3,48.98-33.57,48.81s-32.61-30.53-32.61-48.81c0-18.28,14.82-33.09,33.09-33.09,18.28,0,32.95,14.82,33.09,33.09Z"/>
        <path class="cls-195" d="M331.83,320.43c.15,18.16-15.21,49.11-33.37,48.94s-32.39-30.78-32.39-48.94c0-18.16,14.72-32.88,32.88-32.88,18.16,0,32.73,14.72,32.88,32.88Z"/>
        <path class="cls-81" d="M331.63,320.58c.15,18.04-15.13,49.24-33.16,49.06s-32.16-31.02-32.16-49.06c0-18.04,14.62-32.66,32.66-32.66,18.04,0,32.51,14.62,32.66,32.66Z"/>
        <path class="cls-89" d="M331.43,320.72c.15,17.92-15.04,49.37-32.96,49.19s-31.93-31.27-31.93-49.19c0-17.92,14.53-32.45,32.45-32.45,17.92,0,32.3,14.53,32.45,32.45Z"/>
        <path class="cls-180" d="M331.22,320.86c.15,17.8-14.95,49.51-32.76,49.32s-31.71-31.52-31.71-49.32c0-17.8,14.43-32.23,32.23-32.23,17.8,0,32.08,14.43,32.23,32.23Z"/>
        <path class="cls-47" d="M331.02,321.01c.16,17.68-14.87,49.64-32.55,49.44-17.68-.19-31.48-31.76-31.48-49.44,0-17.68,14.33-32.02,32.02-32.02,17.68,0,31.86,14.34,32.02,32.02Z"/>
        <path class="cls-103" d="M330.81,321.15c.16,17.57-14.78,49.77-32.35,49.57-17.56-.2-31.26-32.01-31.26-49.57,0-17.56,14.24-31.8,31.8-31.8,17.56,0,31.64,14.24,31.8,31.8Z"/>
        <path class="cls-95" d="M330.61,321.3c.16,17.45-14.7,49.9-32.14,49.7-17.45-.2-31.03-32.25-31.03-49.7,0-17.45,14.14-31.59,31.59-31.59s31.42,14.14,31.59,31.59Z"/>
        <path class="cls-170" d="M330.41,321.44c.17,17.33-14.61,50.03-31.94,49.82s-30.81-32.5-30.81-49.82c0-17.33,14.05-31.37,31.37-31.37,17.33,0,31.21,14.05,31.37,31.37Z"/>
        <path class="cls-196" d="M330.2,321.59c.17,17.21-14.53,50.16-31.73,49.95-17.21-.21-30.58-32.74-30.58-49.95,0-17.21,13.95-31.16,31.16-31.16,17.21,0,30.99,13.95,31.16,31.16Z"/>
        <path class="cls-11" d="M330,321.73c.17,17.09-14.44,50.29-31.53,50.08-17.09-.21-30.36-32.99-30.36-50.08,0-17.09,13.85-30.94,30.94-30.94,17.09,0,30.77,13.85,30.94,30.94Z"/>
        <path class="cls-188" d="M329.8,321.87c.18,16.97-14.35,50.42-31.32,50.2s-30.13-33.23-30.13-50.2c0-16.97,13.76-30.73,30.73-30.73,16.97,0,30.55,13.76,30.73,30.73Z"/>
        <path class="cls-137" d="M329.59,322.02c.18,16.85-14.27,50.55-31.12,50.33-16.85-.22-29.91-33.48-29.91-50.33,0-16.85,13.66-30.51,30.51-30.51s30.33,13.66,30.51,30.51Z"/>
        <path class="cls-90" d="M329.39,322.16c.18,16.74-14.18,50.68-30.92,50.46-16.73-.22-29.68-33.72-29.68-50.46,0-16.73,13.56-30.3,30.3-30.3,16.73,0,30.12,13.57,30.3,30.3Z"/>
        <path class="cls-153" d="M329.19,322.31c.19,16.62-14.1,50.81-30.71,50.58-16.61-.23-29.46-33.97-29.46-50.58,0-16.61,13.47-30.08,30.08-30.08,16.61,0,29.9,13.47,30.08,30.08Z"/>
        <path class="cls-82" d="M328.98,322.45c.19,16.5-14.01,50.94-30.51,50.71-16.5-.23-29.23-34.22-29.23-50.71,0-16.5,13.37-29.87,29.87-29.87,16.5,0,29.68,13.37,29.87,29.87Z"/>
        <path class="cls-164" d="M328.78,322.6c.19,16.38-13.92,51.07-30.3,50.84s-29.01-34.46-29.01-50.84c0-16.38,13.28-29.65,29.65-29.65,16.38,0,29.46,13.28,29.65,29.65Z"/>
        <path class="cls-211" d="M328.57,322.74c.19,16.26-13.84,51.2-30.1,50.97-16.26-.24-28.78-34.71-28.78-50.97,0-16.26,13.18-29.44,29.44-29.44,16.26,0,29.24,13.18,29.44,29.44Z"/>
        <path class="cls-102" d="M328.37,322.88c.2,16.14-13.75,51.33-29.89,51.09-16.14-.24-28.55-34.95-28.55-51.09,0-16.14,13.08-29.22,29.22-29.22,16.14,0,29.03,13.09,29.22,29.22Z"/>
        <path class="cls-34" d="M328.17,323.03c.2,16.02-13.67,51.46-29.69,51.22-16.02-.25-28.33-35.2-28.33-51.22,0-16.02,12.99-29.01,29.01-29.01,16.02,0,28.81,12.99,29.01,29.01Z"/>
        <path class="cls-77" d="M327.96,323.17c.2,15.91-13.58,51.59-29.48,51.35-15.9-.25-28.1-35.44-28.1-51.35,0-15.9,12.89-28.79,28.79-28.79,15.9,0,28.59,12.89,28.79,28.79Z"/>
        <path class="cls-197" d="M327.76,323.32c.21,15.79-13.5,51.73-29.28,51.47-15.78-.25-27.88-35.69-27.88-51.47,0-15.78,12.8-28.58,28.58-28.58s28.37,12.8,28.58,28.58Z"/>
        <path class="cls-51" d="M327.56,323.46c.21,15.67-13.41,51.86-29.08,51.6-15.67-.26-27.65-35.93-27.65-51.6,0-15.67,12.7-28.36,28.36-28.36,15.67,0,28.15,12.7,28.36,28.36Z"/>
        <path class="cls-12" d="M327.35,323.61c.21,15.55-13.32,51.99-28.87,51.73-15.55-.26-27.43-36.18-27.43-51.73,0-15.55,12.6-28.15,28.15-28.15,15.55,0,27.94,12.6,28.15,28.15Z"/>
        <path class="cls-106" d="M327.15,323.75c.22,15.43-13.24,52.12-28.67,51.85-15.43-.26-27.2-36.43-27.2-51.85,0-15.43,12.51-27.93,27.93-27.93s27.72,12.51,27.93,27.93Z"/>
        <path class="cls-183" d="M326.94,323.89c.22,15.31-13.15,52.25-28.46,51.98-15.31-.27-26.98-36.67-26.98-51.98,0-15.31,12.41-27.72,27.72-27.72,15.31,0,27.5,12.41,27.72,27.72Z"/>
        <path class="cls-148" d="M326.74,324.04c.22,15.2-13.07,52.38-28.26,52.11-15.19-.27-26.75-36.92-26.75-52.11,0-15.19,12.31-27.5,27.5-27.5,15.19,0,27.28,12.32,27.5,27.5Z"/>
        <path class="cls-86" d="M326.54,324.18c.23,15.08-12.98,52.51-28.05,52.23-15.07-.28-26.53-37.16-26.53-52.23,0-15.07,12.22-27.29,27.29-27.29,15.07,0,27.06,12.22,27.29,27.29Z"/>
        <path class="cls-105" d="M326.33,324.33c.23,14.96-12.9,52.64-27.85,52.36-14.95-.28-26.3-37.41-26.3-52.36,0-14.95,12.12-27.07,27.07-27.07,14.95,0,26.85,12.12,27.07,27.07Z"/>
        <path class="cls-67" d="M326.13,324.47c.23,14.84-12.81,52.77-27.64,52.49-14.83-.28-26.08-37.65-26.08-52.49,0-14.83,12.03-26.86,26.86-26.86,14.83,0,26.63,12.03,26.86,26.86Z"/>
        <path class="cls-56" d="M325.93,324.62c.23,14.72-12.72,52.9-27.44,52.61-14.72-.29-25.85-37.9-25.85-52.61,0-14.72,11.93-26.65,26.65-26.65,14.72,0,26.41,11.93,26.65,26.65Z"/>
        <path class="cls-166" d="M325.72,324.76c.24,14.6-12.64,53.03-27.24,52.74-14.6-.29-25.62-38.14-25.62-52.74,0-14.6,11.83-26.43,26.43-26.43s26.19,11.84,26.43,26.43Z"/>
        <path class="cls-71" d="M325.52,324.9c.24,14.48-12.55,53.16-27.03,52.87-14.48-.29-25.4-38.39-25.4-52.87,0-14.48,11.74-26.22,26.22-26.22,14.48,0,25.97,11.74,26.22,26.22Z"/>
        <path class="cls-209" d="M325.32,325.05c.24,14.37-12.47,53.29-26.83,52.99-14.36-.3-25.17-38.63-25.17-52.99,0-14.36,11.64-26,26-26,14.36,0,25.76,11.64,26,26Z"/>
        <path class="cls-28" d="M325.11,325.19c.25,14.25-12.38,53.42-26.62,53.12-14.24-.3-24.95-38.88-24.95-53.12,0-14.24,11.54-25.79,25.79-25.79,14.24,0,25.54,11.55,25.79,25.79Z"/>
        <path class="cls-120" d="M324.91,325.34c.25,14.13-12.3,53.55-26.42,53.25-14.12-.31-24.72-39.13-24.72-53.25,0-14.12,11.45-25.57,25.57-25.57,14.12,0,25.32,11.45,25.57,25.57Z"/>
        <path class="cls-55" d="M324.7,325.48c.25,14.01-12.21,53.68-26.21,53.37-14-.31-24.5-39.37-24.5-53.37,0-14,11.35-25.36,25.36-25.36s25.1,11.35,25.36,25.36Z"/>
        <path class="cls-200" d="M324.5,325.63c.26,13.89-12.12,53.81-26.01,53.5-13.89-.31-24.27-39.62-24.27-53.5,0-13.89,11.26-25.14,25.14-25.14,13.89,0,24.88,11.26,25.14,25.14Z"/>
        <path class="cls-147" d="M324.3,325.77c.26,13.77-12.04,53.95-25.8,53.63-13.77-.32-24.05-39.86-24.05-53.63,0-13.77,11.16-24.93,24.93-24.93,13.77,0,24.67,11.16,24.93,24.93Z"/>
        <path class="cls-92" d="M324.09,325.91c.26,13.66-11.95,54.08-25.6,53.76-13.65-.32-23.82-40.11-23.82-53.76,0-13.65,11.06-24.71,24.71-24.71,13.65,0,24.45,11.07,24.71,24.71Z"/>
        <path class="cls-126" d="M323.89,326.06c.27,13.54-11.87,54.21-25.4,53.88-13.53-.32-23.6-40.35-23.6-53.88,0-13.53,10.97-24.5,24.5-24.5,13.53,0,24.23,10.97,24.5,24.5Z"/>
        <path class="cls-131" d="M323.69,326.2c.27,13.42-11.78,54.34-25.19,54.01-13.41-.33-23.37-40.6-23.37-54.01,0-13.41,10.87-24.28,24.28-24.28s24.01,10.87,24.28,24.28Z"/>
        <path class="cls-31" d="M323.48,326.35c.27,13.3-11.7,54.47-24.99,54.14-13.29-.33-23.15-40.84-23.15-54.14,0-13.29,10.78-24.07,24.07-24.07,13.29,0,23.79,10.78,24.07,24.07Z"/>
        <path class="cls-3" d="M323.28,326.49c.27,13.18-11.61,54.6-24.78,54.26-13.17-.34-22.92-41.09-22.92-54.26,0-13.17,10.68-23.85,23.85-23.85,13.17,0,23.58,10.68,23.85,23.85Z"/>
        <path class="cls-129" d="M323.07,326.64c.28,13.06-11.52,54.73-24.58,54.39-13.05-.34-22.7-41.33-22.7-54.39,0-13.05,10.58-23.64,23.64-23.64s23.36,10.59,23.64,23.64Z"/>
        <path class="cls-123" d="M322.87,326.78c.28,12.94-11.44,54.86-24.37,54.52-12.94-.34-22.47-41.58-22.47-54.52,0-12.94,10.49-23.42,23.42-23.42s23.14,10.49,23.42,23.42Z"/>
        <path class="cls-18" d="M322.67,326.92c.28,12.83-11.35,54.99-24.17,54.64-12.82-.35-22.24-41.83-22.24-54.64,0-12.82,10.39-23.21,23.21-23.21s22.92,10.39,23.21,23.21Z"/>
        <path class="cls-30" d="M322.46,327.07c.29,12.71-11.27,55.12-23.97,54.77-12.7-.35-22.02-42.07-22.02-54.77,0-12.7,10.29-22.99,22.99-22.99,12.7,0,22.71,10.3,22.99,22.99Z"/>
        <path class="cls-99" d="M322.26,327.21c.29,12.59-11.18,55.25-23.76,54.9-12.58-.35-21.79-42.32-21.79-54.9,0-12.58,10.2-22.78,22.78-22.78s22.49,10.2,22.78,22.78Z"/>
        <path class="cls-154" d="M322.06,327.36c.29,12.47-11.1,55.38-23.56,55.02-12.46-.36-21.57-42.56-21.57-55.02,0-12.46,10.1-22.56,22.56-22.56,12.46,0,22.27,10.11,22.56,22.56Z"/>
        <path class="cls-139" d="M321.85,327.5c.3,12.35-11.01,55.51-23.35,55.15-12.34-.36-21.34-42.81-21.34-55.15,0-12.34,10.01-22.35,22.35-22.35,12.34,0,22.05,10.01,22.35,22.35Z"/>
        <path class="cls-75" d="M321.65,327.65c.3,12.23-10.92,55.64-23.15,55.28-12.22-.37-21.12-43.05-21.12-55.28,0-12.22,9.91-22.13,22.13-22.13s21.83,9.91,22.13,22.13Z"/>
        <path class="cls-80" d="M321.44,327.79c.3,12.12-10.84,55.77-22.94,55.4-12.1-.37-20.89-43.3-20.89-55.4,0-12.1,9.81-21.92,21.92-21.92,12.1,0,21.62,9.82,21.92,21.92Z"/>
        <path class="cls-7" d="M321.24,327.93c.31,12-10.75,55.9-22.74,55.53-11.99-.37-20.67-43.54-20.67-55.53,0-11.99,9.72-21.7,21.7-21.7,11.99,0,21.4,9.72,21.7,21.7Z"/>
        <path class="cls-168" d="M321.04,328.08c.31,11.88-10.67,56.03-22.53,55.66-11.87-.38-20.44-43.79-20.44-55.66,0-11.87,9.62-21.49,21.49-21.49,11.87,0,21.18,9.62,21.49,21.49Z"/>
        <path class="cls-156" d="M320.83,328.22c.31,11.76-10.58,56.16-22.33,55.78-11.75-.38-20.22-44.04-20.22-55.78,0-11.75,9.52-21.27,21.27-21.27s20.96,9.53,21.27,21.27Z"/>
        <path class="cls-68" d="M320.63,328.37c.32,11.64-10.5,56.3-22.13,55.91-11.63-.38-19.99-44.28-19.99-55.91,0-11.63,9.43-21.06,21.06-21.06,11.63,0,20.74,9.43,21.06,21.06Z"/>
        <path class="cls-91" d="M320.43,328.51c.32,11.52-10.41,56.43-21.92,56.04-11.51-.39-19.77-44.53-19.77-56.04,0-11.51,9.33-20.84,20.84-20.84,11.51,0,20.53,9.34,20.84,20.84Z"/>
        <path class="cls-141" d="M320.22,328.66c.32,11.41-10.32,56.56-21.72,56.16-11.39-.39-19.54-44.77-19.54-56.16,0-11.39,9.24-20.63,20.63-20.63s20.31,9.24,20.63,20.63Z"/>
        <path class="cls-104" d="M320.02,328.8c.32,11.29-10.24,56.69-21.51,56.29-11.27-.4-19.32-45.02-19.32-56.29,0-11.27,9.14-20.41,20.41-20.41,11.27,0,20.09,9.14,20.41,20.41Z"/>
        <path class="cls-60" d="M319.82,328.94c.33,11.17-10.15,56.82-21.31,56.42-11.16-.4-19.09-45.26-19.09-56.42,0-11.16,9.04-20.2,20.2-20.2,11.16,0,19.87,9.05,20.2,20.2Z"/>
        <path class="cls-4" d="M319.61,329.09c.33,11.05-10.07,56.95-21.1,56.54-11.04-.4-18.86-45.51-18.86-56.54,0-11.04,8.95-19.98,19.98-19.98,11.04,0,19.65,8.95,19.98,19.98Z"/>
        <path class="cls-130" d="M319.41,329.23c.33,10.93-9.98,57.08-20.9,56.67-10.92-.41-18.64-45.75-18.64-56.67,0-10.92,8.85-19.77,19.77-19.77,10.92,0,19.44,8.86,19.77,19.77Z"/>
        <path class="cls-72" d="M319.2,329.38c.34,10.82-9.89,57.21-20.69,56.8-10.8-.41-18.41-46-18.41-56.8,0-10.8,8.75-19.55,19.55-19.55,10.8,0,19.22,8.76,19.55,19.55Z"/>
        <path class="cls-151" d="M319,329.52c.34,10.7-9.81,57.34-20.49,56.93-10.68-.41-18.19-46.24-18.19-56.93,0-10.68,8.66-19.34,19.34-19.34,10.68,0,19,8.66,19.34,19.34Z"/>
        <path class="cls-64" d="M318.8,329.67c.34,10.58-9.72,57.47-20.29,57.05-10.56-.42-17.96-46.49-17.96-57.05,0-10.56,8.56-19.12,19.12-19.12s18.78,8.57,19.12,19.12Z"/>
        <path class="cls-173" d="M318.59,329.81c.35,10.46-9.64,57.6-20.08,57.18-10.44-.42-17.74-46.74-17.74-57.18,0-10.44,8.47-18.91,18.91-18.91,10.44,0,18.56,8.47,18.91,18.91Z"/>
        <path class="cls-210" d="M318.39,329.95c.35,10.34-9.55,57.73-19.88,57.31-10.32-.43-17.51-46.98-17.51-57.31,0-10.32,8.37-18.69,18.69-18.69,10.32,0,18.35,8.38,18.69,18.69Z"/>
        <path class="cls-117" d="M318.19,330.1c.35,10.22-9.47,57.86-19.67,57.43-10.21-.43-17.29-47.23-17.29-57.43,0-10.21,8.27-18.48,18.48-18.48,10.21,0,18.13,8.28,18.48,18.48Z"/>
        <path class="cls-2" d="M317.98,330.24c.36,10.11-9.38,57.99-19.47,57.56-10.09-.43-17.06-47.47-17.06-57.56,0-10.09,8.18-18.26,18.26-18.26,10.09,0,17.91,8.18,18.26,18.26Z"/>
        <path class="cls-144" d="M317.78,330.39c.36,9.99-9.29,58.12-19.26,57.69-9.97-.44-16.84-47.72-16.84-57.69,0-9.97,8.08-18.05,18.05-18.05s17.69,8.09,18.05,18.05Z"/>
        <path class="cls-167" d="M317.57,330.53c.36,9.87-9.21,58.25-19.06,57.81-9.85-.44-16.61-47.96-16.61-57.81,0-9.85,7.99-17.84,17.84-17.84s17.47,7.99,17.84,17.84Z"/>
        <path class="cls-174" d="M317.37,330.68c.36,9.75-9.12,58.38-18.85,57.94-9.73-.45-16.39-48.21-16.39-57.94,0-9.73,7.89-17.62,17.62-17.62,9.73,0,17.26,7.9,17.62,17.62Z"/>
        <path class="cls-52" d="M317.17,330.82c.37,9.63-9.04,58.52-18.65,58.07-9.61-.45-16.16-48.45-16.16-58.07,0-9.61,7.79-17.41,17.41-17.41s17.04,7.8,17.41,17.41Z"/>
        <path class="cls-111" d="M316.96,330.96c.37,9.52-8.95,58.65-18.45,58.19-9.49-.45-15.94-48.7-15.94-58.19,0-9.49,7.7-17.19,17.19-17.19,9.49,0,16.82,7.7,17.19,17.19Z"/>
        <path class="cls-70" d="M316.76,331.11c.37,9.4-8.87,58.78-18.24,58.32-9.38-.46-15.71-48.94-15.71-58.32,0-9.38,7.6-16.98,16.98-16.98s16.6,7.61,16.98,16.98Z"/>
        <path class="cls-29" d="M316.56,331.25c.38,9.28-8.78,58.91-18.04,58.45-9.26-.46-15.48-49.19-15.48-58.45,0-9.26,7.5-16.76,16.76-16.76s16.38,7.51,16.76,16.76Z"/>
        <path class="cls-207" d="M316.35,331.4c.38,9.16-8.69,59.04-17.83,58.57-9.14-.46-15.26-49.44-15.26-58.57,0-9.14,7.41-16.55,16.55-16.55,9.14,0,16.17,7.42,16.55,16.55Z"/>
        <path class="cls-54" d="M316.15,331.54c.38,9.04-8.61,59.17-17.63,58.7-9.02-.47-15.03-49.68-15.03-58.7,0-9.02,7.31-16.33,16.33-16.33,9.02,0,15.95,7.32,16.33,16.33Z"/>
        <path class="cls-62" d="M315.95,331.69c.39,8.93-8.52,59.3-17.42,58.83-8.9-.47-14.81-49.93-14.81-58.83,0-8.9,7.22-16.12,16.12-16.12,8.9,0,15.73,7.22,16.12,16.12Z"/>
        <path class="cls-93" d="M315.74,331.83c.39,8.81-8.44,59.43-17.22,58.95-8.78-.48-14.58-50.17-14.58-58.95,0-8.78,7.12-15.9,15.9-15.9,8.78,0,15.51,7.13,15.9,15.9Z"/>
        <path class="cls-85" d="M315.54,331.97c.39,8.69-8.35,59.56-17.01,59.08-8.66-.48-14.36-50.42-14.36-59.08,0-8.66,7.02-15.69,15.69-15.69,8.66,0,15.3,7.03,15.69,15.69Z"/>
        <path class="cls-40" d="M315.33,332.12c.4,8.57-8.27,59.69-16.81,59.21-8.54-.48-14.13-50.66-14.13-59.21,0-8.54,6.93-15.47,15.47-15.47,8.54,0,15.08,6.94,15.47,15.47Z"/>
        <path class="cls-135" d="M315.13,332.26c.4,8.45-8.18,59.82-16.61,59.33-8.43-.49-13.91-50.91-13.91-59.33,0-8.43,6.83-15.26,15.26-15.26s14.86,6.84,15.26,15.26Z"/>
        <path class="cls-23" d="M314.93,332.41c.4,8.34-8.09,59.95-16.4,59.46-8.31-.49-13.68-51.15-13.68-59.46,0-8.31,6.73-15.04,15.04-15.04,8.31,0,14.64,6.74,15.04,15.04Z"/>
        <path class="cls-17" d="M314.72,332.55c.41,8.22-8.01,60.08-16.2,59.59-8.19-.49-13.46-51.4-13.46-59.59,0-8.19,6.64-14.83,14.83-14.83s14.42,6.65,14.83,14.83Z"/>
        <path class="cls-146" d="M314.52,332.7c.41,8.1-7.92,60.21-15.99,59.72-8.07-.5-13.23-51.65-13.23-59.72,0-8.07,6.54-14.61,14.61-14.61,8.07,0,14.21,6.55,14.61,14.61Z"/>
        <path class="cls-19" d="M314.32,332.84c.41,7.98-7.84,60.34-15.79,59.84-7.95-.5-13.01-51.89-13.01-59.84,0-7.95,6.45-14.4,14.4-14.4,7.95,0,13.99,6.46,14.4,14.4Z"/>
        <path class="cls-140" d="M314.11,332.98c.41,7.87-7.75,60.47-15.58,59.97-7.83-.51-12.78-52.14-12.78-59.97,0-7.83,6.35-14.18,14.18-14.18,7.83,0,13.77,6.36,14.18,14.18Z"/>
        <path class="cls-203" d="M313.91,333.13c.42,7.75-7.67,60.6-15.38,60.1-7.71-.51-12.56-52.38-12.56-60.1,0-7.71,6.25-13.97,13.97-13.97s13.55,6.26,13.97,13.97Z"/>
        <path class="cls-50" d="M313.7,333.27c.42,7.63-7.58,60.74-15.17,60.22-7.6-.51-12.33-52.63-12.33-60.22,0-7.6,6.16-13.75,13.75-13.75s13.33,6.17,13.75,13.75Z"/>
        <path class="cls-191" d="M313.5,333.42c.42,7.51-7.49,60.87-14.97,60.35-7.48-.52-12.1-52.87-12.1-60.35,0-7.48,6.06-13.54,13.54-13.54,7.48,0,13.12,6.07,13.54,13.54Z"/>
        <path class="cls-10" d="M313.3,333.56c.43,7.39-7.41,61-14.77,60.48-7.36-.52-11.88-53.12-11.88-60.48,0-7.36,5.96-13.32,13.32-13.32,7.36,0,12.9,5.98,13.32,13.32Z"/>
        <path class="cls-158" d="M313.09,333.71c.43,7.28-7.32,61.13-14.56,60.6-7.24-.52-11.65-53.36-11.65-60.6,0-7.24,5.87-13.11,13.11-13.11,7.24,0,12.68,5.88,13.11,13.11Z"/>
        <path class="cls-175" d="M312.89,333.85c.43,7.16-7.24,61.26-14.36,60.73-7.12-.53-11.43-53.61-11.43-60.73,0-7.12,5.77-12.89,12.89-12.89,7.12,0,12.46,5.79,12.89,12.89Z"/>
        <path class="cls-163" d="M312.69,333.99c.44,7.04-7.15,61.39-14.15,60.86-7-.53-11.2-53.85-11.2-60.86,0-7,5.68-12.68,12.68-12.68s12.24,5.69,12.68,12.68Z"/>
        <path class="cls-97" d="M312.48,334.14c.44,6.92-7.07,61.52-13.95,60.98-6.88-.54-10.98-54.1-10.98-60.98,0-6.88,5.58-12.46,12.46-12.46,6.88,0,12.03,5.59,12.46,12.46Z"/>
        <path class="cls-21" d="M312.28,334.28c.44,6.81-6.98,61.65-13.74,61.11-6.76-.54-10.75-54.35-10.75-61.11,0-6.76,5.48-12.25,12.25-12.25,6.76,0,11.81,5.5,12.25,12.25Z"/>
        <path class="cls-112" d="M312.07,334.43c.45,6.69-6.89,61.78-13.54,61.24-6.65-.54-10.53-54.59-10.53-61.24,0-6.65,5.39-12.03,12.03-12.03,6.65,0,11.59,5.4,12.03,12.03Z"/>
        <path class="cls-22" d="M311.87,334.57c.45,6.57-6.81,61.91-13.34,61.36-6.53-.55-10.3-54.84-10.3-61.36,0-6.53,5.29-11.82,11.82-11.82,6.53,0,11.37,5.31,11.82,11.82Z"/>
        <path class="cls-63" d="M311.67,334.72c.45,6.46-6.72,62.04-13.13,61.49-6.41-.55-10.08-55.08-10.08-61.49,0-6.41,5.2-11.6,11.6-11.6s11.16,5.21,11.6,11.6Z"/>
        <path class="cls-44" d="M311.46,334.86c.46,6.34-6.64,62.17-12.93,61.62-6.29-.55-9.85-55.33-9.85-61.62,0-6.29,5.1-11.39,11.39-11.39,6.29,0,10.94,5.12,11.39,11.39Z"/>
        <path class="cls-204" d="M311.26,335c.46,6.22-6.55,62.3-12.72,61.74-6.17-.56-9.63-55.57-9.63-61.74,0-6.17,5-11.17,11.17-11.17s10.72,5.02,11.17,11.17Z"/>
        <path class="cls-169" d="M311.06,335.15c.46,6.1-6.47,62.43-12.52,61.87-6.05-.56-9.4-55.82-9.4-61.87,0-6.05,4.91-10.96,10.96-10.96,6.05,0,10.5,4.92,10.96,10.96Z"/>
        <path class="cls-65" d="M310.85,335.29c.46,5.99-6.38,62.56-12.31,62-5.93-.57-9.18-56.06-9.18-62,0-5.93,4.81-10.74,10.74-10.74s10.28,4.83,10.74,10.74Z"/>
        <path class="cls-114" d="M310.65,335.44c.47,5.87-6.29,62.69-12.11,62.12-5.82-.57-8.95-56.31-8.95-62.12,0-5.82,4.71-10.53,10.53-10.53s10.07,4.73,10.53,10.53Z"/>
        <path class="cls-190" d="M310.45,335.58c.47,5.75-6.21,62.82-11.9,62.25-5.7-.57-8.72-56.55-8.72-62.25,0-5.7,4.62-10.31,10.31-10.31,5.7,0,9.85,4.64,10.31,10.31Z"/>
        <path class="cls-134" d="M310.24,335.73c.47,5.64-6.12,62.96-11.7,62.38-5.58-.58-8.5-56.8-8.5-62.38,0-5.58,4.52-10.1,10.1-10.1s9.63,4.54,10.1,10.1Z"/>
        <path class="cls-37" d="M310.04,335.87c.48,5.52-6.04,63.09-11.5,62.5-5.46-.58-8.27-57.05-8.27-62.5,0-5.46,4.43-9.88,9.88-9.88s9.41,4.45,9.88,9.88Z"/>
        <path class="cls-88" d="M309.83,336.02c.48,5.4-5.95,63.22-11.29,62.63-5.34-.58-8.05-57.29-8.05-62.63,0-5.34,4.33-9.67,9.67-9.67s9.2,4.35,9.67,9.67Z"/>
        <path class="cls-172" d="M309.63,336.16c.48,5.29-5.86,63.35-11.09,62.76-5.22-.59-7.82-57.54-7.82-62.76,0-5.22,4.23-9.45,9.45-9.45s8.98,4.25,9.45,9.45Z"/>
        <path class="cls-59" d="M309.43,336.3c.49,5.17-5.78,63.48-10.88,62.89-5.1-.59-7.6-57.78-7.6-62.89,0-5.1,4.14-9.24,9.24-9.24s8.76,4.16,9.24,9.24Z"/>
        <path class="cls-5" d="M309.22,336.45c.49,5.06-5.69,63.61-10.68,63.01-4.98-.6-7.37-58.03-7.37-63.01,0-4.98,4.04-9.02,9.02-9.02s8.54,4.06,9.02,9.02Z"/>
        <path class="cls-83" d="M309.02,336.59c.49,4.94-5.61,63.74-10.47,63.14-4.87-.6-7.15-58.27-7.15-63.14,0-4.87,3.94-8.81,8.81-8.81s8.33,3.97,8.81,8.81Z"/>
        <path class="cls-127" d="M308.82,336.74c.5,4.82-5.52,63.87-10.27,63.27-4.75-.6-6.92-58.52-6.92-63.27,0-4.75,3.85-8.6,8.6-8.6s8.11,3.87,8.6,8.6Z"/>
        <path class="cls-48" d="M308.61,336.88c.5,4.71-5.44,64-10.06,63.39-4.63-.61-6.7-58.76-6.7-63.39,0-4.63,3.75-8.38,8.38-8.38,4.63,0,7.89,3.78,8.38,8.38Z"/>
        <path class="cls-189" d="M308.41,337.03c.5,4.59-5.35,64.13-9.86,63.52-4.51-.61-6.47-59.01-6.47-63.52,0-4.51,3.66-8.17,8.17-8.17s7.67,3.68,8.17,8.17Z"/>
        <path class="cls-79" d="M308.2,337.17c.51,4.48-5.26,64.26-9.66,63.65-4.39-.61-6.25-59.26-6.25-63.65,0-4.39,3.56-7.95,7.95-7.95s7.46,3.59,7.95,7.95Z"/>
        <path class="cls-76" d="M308,337.31c.51,4.36-5.18,64.39-9.45,63.77-4.27-.62-6.02-59.5-6.02-63.77,0-4.27,3.46-7.74,7.74-7.74s7.24,3.49,7.74,7.74Z"/>
        <path class="cls-128" d="M307.8,337.46c.51,4.25-5.09,64.52-9.25,63.9-4.15-.62-5.79-59.75-5.79-63.9,0-4.15,3.37-7.52,7.52-7.52s7.02,3.4,7.52,7.52Z"/>
        <path class="cls-186" d="M307.59,337.6c.52,4.13-5.01,64.65-9.04,64.03-4.03-.63-5.57-59.99-5.57-64.03,0-4.03,3.27-7.31,7.31-7.31s6.81,3.3,7.31,7.31Z"/>
        <path class="cls-73" d="M307.39,337.75c.52,4.02-4.92,64.78-8.84,64.15-3.92-.63-5.34-60.24-5.34-64.15,0-3.92,3.17-7.09,7.09-7.09,3.92,0,6.59,3.21,7.09,7.09Z"/>
        <path class="cls-45" d="M307.19,337.89c.52,3.9-4.84,64.91-8.63,64.28-3.8-.63-5.12-60.48-5.12-64.28,0-3.8,3.08-6.88,6.88-6.88s6.37,3.11,6.88,6.88Z"/>
        <path class="cls-121" d="M306.98,338.04c.53,3.79-4.75,65.04-8.43,64.41-3.68-.64-4.89-60.73-4.89-64.41,0-3.68,2.98-6.66,6.66-6.66s6.15,3.02,6.66,6.66Z"/>
        <path class="cls-78" d="M306.78,338.18c.53,3.67-4.66,65.18-8.22,64.53-3.56-.64-4.67-60.97-4.67-64.53s2.89-6.45,6.45-6.45,5.94,2.92,6.45,6.45Z"/>
        <path class="cls-69" d="M306.58,338.32c.53,3.56-4.58,65.31-8.02,64.66-3.44-.64-4.44-61.22-4.44-64.66s2.79-6.23,6.23-6.23,5.72,2.83,6.23,6.23Z"/>
        <path class="cls-133" d="M306.37,338.47c.54,3.45-4.49,65.44-7.82,64.79-3.32-.65-4.22-61.46-4.22-64.79s2.69-6.02,6.02-6.02,5.5,2.73,6.02,6.02Z"/>
        <path class="cls-194" d="M306.17,338.61c.54,3.33-4.41,65.57-7.61,64.91-3.2-.65-3.99-61.71-3.99-64.91,0-3.2,2.6-5.8,5.8-5.8s5.29,2.64,5.8,5.8Z"/>
        <path class="cls-119" d="M305.96,338.76c.55,3.22-4.32,65.7-7.41,65.04-3.09-.66-3.77-61.96-3.77-65.04,0-3.09,2.5-5.59,5.59-5.59s5.07,2.54,5.59,5.59Z"/>
        <path class="cls-187" d="M305.76,338.9c.55,3.11-4.24,65.83-7.2,65.17-2.97-.66-3.54-62.2-3.54-65.17,0-2.97,2.41-5.37,5.37-5.37s4.86,2.45,5.37,5.37Z"/>
        <path class="cls-9" d="M305.56,339.05c1.09,2.85-4.15,65.96-7,65.29-2.85-.66-3.32-62.45-3.32-65.29,0-2.85,2.31-5.16,5.16-5.16s5.16,2.31,5.16,5.16Z"/>
        <path class="cls-66" d="M305.35,339.19c1.09,2.73-4.06,66.09-6.79,65.42-2.73-.67-3.09-62.69-3.09-65.42s2.21-4.94,4.94-4.94,4.94,2.21,4.94,4.94Z"/>
        <path class="cls-49" d="M305.15,339.33c1.1,2.61-3.98,66.22-6.59,65.55-2.61-.67-2.87-62.94-2.87-65.55s2.12-4.73,4.73-4.73,4.73,2.12,4.73,4.73Z"/>
        <path class="cls-42" d="M304.95,339.48c1.11,2.49-3.89,66.35-6.38,65.68-2.49-.68-2.64-63.18-2.64-65.68s2.02-4.51,4.51-4.51,4.51,2.02,4.51,4.51Z"/>
        <path class="cls-171" d="M304.74,339.62c1.11,2.37-3.81,66.48-6.18,65.8-2.37-.68-2.41-63.43-2.41-65.8s1.92-4.3,4.3-4.3,4.3,1.92,4.3,4.3Z"/>
        <path class="cls-198" d="M304.54,339.77c1.12,2.25-3.72,66.61-5.98,65.93-2.25-.68-2.19-63.67-2.19-65.93s1.83-4.08,4.08-4.08,4.08,1.83,4.08,4.08Z"/>
        <path class="cls-57" d="M304.33,339.91c1.12,2.14-3.64,66.74-5.77,66.06-2.14-.69-1.96-63.92-1.96-66.06s1.73-3.87,3.87-3.87,3.87,1.73,3.87,3.87Z"/>
        <path class="cls-108" d="M304.13,340.06c1.13,2.02-3.55,66.87-5.57,66.18-2.02-.69-1.74-64.16-1.74-66.18s1.64-3.65,3.65-3.65,3.65,1.64,3.65,3.65Z"/>
        <path class="cls-202" d="M303.93,340.2c1.14,1.9-3.46,67-5.36,66.31-1.9-.69-1.51-64.41-1.51-66.31s1.54-3.44,3.44-3.44,3.44,1.54,3.44,3.44Z"/>
        <path class="cls-192" d="M303.72,340.34c1.14,1.78-3.38,67.13-5.16,66.44-1.78-.7-1.29-64.66-1.29-66.44s1.44-3.22,3.22-3.22,3.22,1.44,3.22,3.22Z"/>
        <path class="cls-149" d="M303.52,340.49c1.15,1.66-3.29,67.26-4.95,66.56-1.66-.7-1.06-64.9-1.06-66.56s1.35-3.01,3.01-3.01,3.01,1.35,3.01,3.01Z"/>
        <path class="cls-185" d="M303.32,340.63c1.16,1.54-3.21,67.4-4.75,66.69-1.54-.71-.84-65.15-.84-66.69s1.25-2.79,2.79-2.79,2.79,1.25,2.79,2.79Z"/>
        <path class="cls-113" d="M303.11,340.78c1.16,1.42-3.12,67.53-4.55,66.82-1.42-.71-.61-65.39-.61-66.82s1.15-2.58,2.58-2.58,2.58,1.15,2.58,2.58Z"/>
        <path class="cls-101" d="M302.91,340.92c1.17,1.31-3.04,67.66-4.34,66.94-1.31-.71-.39-65.64-.39-66.94s1.06-2.36,2.36-2.36,2.36,1.06,2.36,2.36Z"/>
        <path class="cls-8" d="M302.7,341.07c1.17,1.19-2.95,67.79-4.14,67.07-1.19-.72-.16-65.88-.16-67.07s.96-2.15,2.15-2.15,2.15.96,2.15,2.15Z"/>
        <path class="cls-36" d="M302.5,341.21c1.18,1.07-2.86,67.92-3.93,67.2-1.07-.72.06-66.13.06-67.2s.87-1.93,1.93-1.93,1.93.87,1.93,1.93Z"/>
        <path class="cls-84" d="M302.3,341.35c1.19.95-2.78,68.05-3.73,67.32-.95-.72.29-66.37.29-67.32s.77-1.72,1.72-1.72,1.72.77,1.72,1.72Z"/>
        <path class="cls-201" d="M302.09,341.5c1.19.83-2.69,68.18-3.52,67.45s.51-66.62.51-67.45.67-1.5,1.5-1.5,1.5.67,1.5,1.5Z"/>
        <path class="cls-165" d="M301.89,341.64c1.2.71-2.61,68.31-3.32,67.58s.74-66.87.74-67.58.58-1.29,1.29-1.29,1.29.58,1.29,1.29Z"/>
        <path class="cls-143" d="M301.69,341.79c1.2.59-2.52,68.44-3.11,67.7s.97-67.11.97-67.7.48-1.07,1.07-1.07,1.07.48,1.07,1.07Z"/>
        <path class="cls-142" d="M301.48,341.93c1.21.47-2.43,68.57-2.91,67.83s1.19-67.36,1.19-67.83.38-.86.86-.86.86.38.86.86Z"/>
        <path class="cls-6" d="M301.28,342.08c1.22.36-2.35,68.7-2.71,67.96s1.42-67.6,1.42-67.96.29-.64.64-.64.64.29.64.64Z"/>
        <path class="cls-152" d="M301.08,342.22c1.22.24-2.26,68.83-2.5,68.08s1.64-67.85,1.64-68.08.19-.43.43-.43.43.19.43.43Z"/>
        <path class="cls-206" d="M300.87,342.36c1.23.12-2.18,68.96-2.3,68.21s1.87-68.09,1.87-68.21.1-.21.21-.21.21.1.21.21Z"/>
        <path class="cls-118" d="M300.67,342.51h0s-2.09,67.58-2.09,68.34c0,.75,3.33-68.34,2.09-68.34Z"/>
      </g>
      <circle class="cls-118" cx="301.67" cy="286.37" r="6.36"/>
    </g>
  </g>
</svg>